<svg xmlns="http://www.w3.org/2000/svg" xmlns:xlink="http://www.w3.org/1999/xlink" viewBox="0 0 333.91 233.74"><defs><style>.cls-1{fill:url(#Naamloos_verloop_84);}.cls-2{fill:url(#Naamloos_verloop_103);}.cls-3{fill:url(#Naamloos_verloop_32);}.cls-4{fill:url(#Naamloos_verloop_52);}.cls-5{fill:#e3d095;}.cls-6{fill:#ceb984;}</style><linearGradient id="Naamloos_verloop_84" x1="124.31" y1="179.51" x2="213.23" y2="179.51" gradientUnits="userSpaceOnUse"><stop offset="0.01"/><stop offset="1" stop-color="#d9ded4"/></linearGradient><radialGradient id="Naamloos_verloop_103" cx="166.96" cy="114.49" r="122.41" gradientTransform="translate(0 57.24) scale(1 0.5)" gradientUnits="userSpaceOnUse"><stop offset="0.01" stop-color="#7a7a7a"/><stop offset="1" stop-color="#d9ded4"/></radialGradient><linearGradient id="Naamloos_verloop_32" x1="75.33" y1="81.93" x2="261.51" y2="81.93" gradientUnits="userSpaceOnUse"><stop offset="0" stop-color="#a7602a"/><stop offset="1" stop-color="#f1c894"/></linearGradient><linearGradient id="Naamloos_verloop_52" x1="75.42" y1="27.17" x2="261.61" y2="27.17" gradientUnits="userSpaceOnUse"><stop offset="0" stop-color="#a7602a"/><stop offset="0.18" stop-color="#aa652f"/><stop offset="0.38" stop-color="#b4723d"/><stop offset="0.59" stop-color="#c48954"/><stop offset="0.81" stop-color="#daa874"/><stop offset="1" stop-color="#f1c894"/></linearGradient></defs><title>Basic-Cake</title><g id="Laag_2" data-name="Laag 2"><g id="Laag_1-2" data-name="Laag 1"><path class="cls-1" d="M181,125.28H149.68L124.31,225.51h0c.43,1.86,7.19,8.23,41.12,8.23,40.6,0,47.36-6.37,47.8-8.23h0Z"/><ellipse class="cls-2" cx="166.96" cy="114.49" rx="166.96" ry="45.75"/><path class="cls-3" d="M261.51,26.6v83.65h0c-.19,9.62.11,9-23.7,18.14l-.35.14h0l-.33-.11-.05,0-12.87-4.51L195,113.3v.18l.33,22.61c-8.53.75-17.56,1.16-26.93,1.16-51.22,0-92.78-12.07-93.08-27h0V26.6Z"/><path class="cls-4" d="M261.61,27.16a7.32,7.32,0,0,1-.1,1.24,8.79,8.79,0,0,1-.39,1.57c-2.07,5.88-10.57,11.21-23.43,15.37l-.35.12c-11.27,3.61-25.84,6.33-42.32,7.75-1,.09-2.1.18-3.16.25-7.46.57-15.29.87-23.35.87-51.41,0-93.09-12.16-93.09-27.17,0-.19,0-.37,0-.56,1-14.74,42.3-26.6,93.07-26.6,46.58,0,85.16,10,92,23A8.93,8.93,0,0,1,261.61,27.16Z"/><path class="cls-5" d="M168.38,27.1,195,53,195,113.46s29.16,11.27,42.72,15.14c1.28.37,0-83.48,0-83.48Z"/><polygon class="cls-6" points="195.01 69.88 238.12 80.59 238.23 95.56 195.01 81.01 195.01 69.88"/></g></g></svg>