<svg xmlns="http://www.w3.org/2000/svg" xmlns:xlink="http://www.w3.org/1999/xlink" viewBox="0 0 333.91 292.82"><defs><style>.cls-1{fill:url(#Naamloos_verloop_84);}.cls-2{fill:url(#Naamloos_verloop_103);}.cls-3{fill:url(#Naamloos_verloop_137);}.cls-4{fill:#d4a88f;}.cls-5{fill:#e3d095;}.cls-6{fill:url(#Naamloos_verloop_154);}.cls-7{fill:#00ffa3;}.cls-8{fill:#0af;}.cls-9{fill:#bfbfbf;}.cls-10{fill:#d1d1d1;}.cls-11{fill:#f2f2f2;}.cls-12{fill:#5c8491;}.cls-13{fill:url(#Naamloos_verloop_163);}.cls-14{fill:#ceb984;}.cls-15{fill:#e24134;}.cls-16{fill:none;stroke:#11681b;stroke-miterlimit:10;}.cls-17{fill:#d86866;}.cls-18{fill:#ff00ed;}.cls-19{fill:red;}.cls-20{fill:#fff;}.cls-21{fill:url(#Naamloos_verloop_163-2);}.cls-22{fill:url(#Naamloos_verloop_163-3);}.cls-23{fill:url(#Naamloos_verloop_163-4);}.cls-24{fill:url(#Naamloos_verloop_163-5);}.cls-25{fill:url(#Naamloos_verloop_163-6);}.cls-26{fill:url(#Naamloos_verloop_163-7);}.cls-27{fill:url(#Naamloos_verloop_163-8);}.cls-28{fill:url(#Naamloos_verloop_163-9);}.cls-29{fill:url(#Naamloos_verloop_163-10);}.cls-30{fill:url(#Naamloos_verloop_163-11);}</style><linearGradient id="Naamloos_verloop_84" x1="124.31" y1="238.59" x2="213.23" y2="238.59" gradientUnits="userSpaceOnUse"><stop offset="0.01"/><stop offset="1" stop-color="#d9ded4"/></linearGradient><radialGradient id="Naamloos_verloop_103" cx="166.96" cy="173.57" r="122.41" gradientTransform="translate(0 86.79) scale(1 0.5)" gradientUnits="userSpaceOnUse"><stop offset="0.01" stop-color="#7a7a7a"/><stop offset="1" stop-color="#d9ded4"/></radialGradient><linearGradient id="Naamloos_verloop_137" x1="168.84" y1="195.36" x2="167.82" y2="29.01" gradientUnits="userSpaceOnUse"><stop offset="0.01" stop-color="#ff7bac"/><stop offset="0.03" stop-color="#fd71a7"/><stop offset="0.18" stop-color="#f23586"/><stop offset="0.25" stop-color="#ed1e79"/><stop offset="0.63" stop-color="#d9ded4"/></linearGradient><radialGradient id="Naamloos_verloop_154" cx="167.92" cy="108.21" fy="80.91932745767106" r="75.58" gradientTransform="translate(407.04 -51.1) rotate(92.09) scale(1 2.15)" gradientUnits="userSpaceOnUse"><stop offset="0.08" stop-color="#42210b"/><stop offset="0.45" stop-color="#43220b"/><stop offset="0.86" stop-color="#603813"/></radialGradient><radialGradient id="Naamloos_verloop_163" cx="162.32" cy="36.03" fy="44.15472791724576" r="8.12" gradientTransform="translate(-66.54 -34.47) scale(1.54 1.7)" gradientUnits="userSpaceOnUse"><stop offset="0.01" stop-color="#f7931e"/><stop offset="0.4" stop-color="#fa5311"/><stop offset="0.81" stop-color="#fe1705"/><stop offset="1" stop-color="red"/></radialGradient><radialGradient id="Naamloos_verloop_163-2" cx="149.27" cy="30.34" fy="38.45868348911975" r="8.12" xlink:href="#Naamloos_verloop_163"/><radialGradient id="Naamloos_verloop_163-3" cx="119.17" cy="38.74" fy="46.86700885021971" r="8.12" xlink:href="#Naamloos_verloop_163"/><radialGradient id="Naamloos_verloop_163-4" cx="99.94" cy="38.97" fy="47.0897694744938" r="8.12" xlink:href="#Naamloos_verloop_163"/><radialGradient id="Naamloos_verloop_163-5" cx="136.33" cy="34.27" fy="42.39370298289724" r="8.12" xlink:href="#Naamloos_verloop_163"/><radialGradient id="Naamloos_verloop_163-6" cx="144.13" cy="63.03" fy="71.1571102439238" r="8.12" xlink:href="#Naamloos_verloop_163"/><radialGradient id="Naamloos_verloop_163-7" cx="129.41" cy="53.85" fy="61.970201585715834" r="8.12" xlink:href="#Naamloos_verloop_163"/><radialGradient id="Naamloos_verloop_163-8" cx="198.72" cy="38.38" fy="46.50276116304419" r="8.12" xlink:href="#Naamloos_verloop_163"/><radialGradient id="Naamloos_verloop_163-9" cx="109.69" cy="54.82" fy="62.93899388363171" r="8.12" xlink:href="#Naamloos_verloop_163"/><radialGradient id="Naamloos_verloop_163-10" cx="178.93" cy="33.1" fy="41.22211530116444" r="8.12" xlink:href="#Naamloos_verloop_163"/><radialGradient id="Naamloos_verloop_163-11" cx="187.02" cy="47.18" fy="55.307885834787186" r="8.12" xlink:href="#Naamloos_verloop_163"/></defs><title>Candle-Cake</title><g id="Laag_2" data-name="Laag 2"><g id="Laag_1-2" data-name="Laag 1"><path class="cls-1" d="M181,184.37H149.68L124.31,284.6h0c.43,1.85,7.19,8.22,41.12,8.22,40.6,0,47.36-6.37,47.8-8.22h0Z"/><ellipse class="cls-2" cx="166.96" cy="173.57" rx="166.96" ry="45.75"/><path class="cls-3" d="M261.51,85.69v83.65h0c-.19,9.62.11,9-23.7,18.14l-.35.14h0l-.33-.11-.05,0L224.17,183,195,172.39v.18l.33,22.61c-8.53.75-17.56,1.16-26.93,1.16-51.22,0-92.78-12.07-93.08-27h0V85.69Z"/><path class="cls-4" d="M261.61,86.25a7.32,7.32,0,0,1-.1,1.24,8.79,8.79,0,0,1-.39,1.57c-2.07,5.88-10.57,11.21-23.43,15.37l-.35.12c-11.27,3.61-25.84,6.33-42.32,7.75-1,.09-2.1.18-3.16.25-7.46.57-15.29.87-23.35.87-51.41,0-93.09-12.16-93.09-27.17,0-.19,0-.37,0-.56,1-14.74,42.3-26.6,93.07-26.6,46.58,0,85.16,10,92,23A8.93,8.93,0,0,1,261.61,86.25Z"/><path class="cls-5" d="M168.38,86.18,195,112.07,195,172.55s29.16,11.26,42.72,15.14c1.28.36,0-83.49,0-83.49Z"/><path class="cls-6" d="M262.34,128.59a3,3,0,0,1-.83.93c-1,.79-2.35,8.68-3.64,8.35s-2.6-8.73-3.66-9.54a1.16,1.16,0,0,0-1.7.33c-1.91,3.27-7.64-21.81-8.47,7.25-.17,6-2.31,7.72-3.17,7-.68-.59-.9-8.61-1-9.51q-1.06-13.23-2.15-26.48a.22.22,0,0,1,0-.08,0,0,0,0,1,0,0v-.08a9.06,9.06,0,0,0-.38-2.14c-.05-.16-.51-.41-1.47-.68-13.18-3.81-38-10-38-10l-16-4s-5.3-1.45-9.55-2.67a1.17,1.17,0,0,0-1.15,2l8.68,8.68.05,0,5.64,5s3,2.78,3.31,3.2h0a0,0,0,0,1,0,0,52.26,52.26,0,0,0,5.61,5.43,1.16,1.16,0,0,1,.4.89v10.32a1.15,1.15,0,0,1,0,.26c-.16.7-1,4.26-1.3,6.86-.15,1.12,1.33,17-2.67,18s-6,28-6-14c0-5-13,16-11.91-6.83,0-.92-1.76-.69-2.66-.51a5.26,5.26,0,0,0-2.65,2.06c-6.16,7.07-17.54,37.22-21.78,20.28-1-4-11.07-14.09-14-15-3.78-1.17-7.69,6.5-8.61-1.05-3.39-27.95-10.36-5.65-16.14-6.68a11.57,11.57,0,0,0-5.76.09c-2,.71-3.7,11.46-5.49,12.64-4.11,2.72-.3-31.3-14.14-6.19-2.86,5.19-4.86-6.81-6.9-.68-.18.54-1-.53-1-1.09-.3-5.78-1.75-36,.05-45,4.82-24.12,43.87-26.78,94.64-26.78,46.58,0,86.36,7.78,92.36,23.78a9.48,9.48,0,0,1,1,3v3c.13,2.78-.49,5.76-.36,8.54q.66,13.92,1.31,27.83A6.14,6.14,0,0,1,262.34,128.59Z"/><rect class="cls-7" x="161.87" y="83.87" width="1" height="7" transform="translate(206.89 -91.56) rotate(75.69)"/><rect class="cls-8" x="189.07" y="60.24" width="1" height="7" transform="translate(206.22 -135.57) rotate(76.19)"/><path class="cls-9" d="M178.41,46V71.13c0,1.62,1.88,2.93,4.21,2.93s4.2-1.31,4.2-2.93V46Z"/><ellipse class="cls-10" cx="182.62" cy="46.01" rx="4.21" ry="2.93"/><path class="cls-11" d="M182.21,42v3.93c0,.26.4.46.88.46s.89-.2.89-.46V42Z"/><ellipse class="cls-12" cx="184.05" cy="41.95" rx="0.88" ry="0.46"/><path class="cls-13" d="M182.58,44.13c-1.09-2.41-2.9-4.16-4.5-6.09a12.21,12.21,0,0,1-3.23-7,12.7,12.7,0,0,1,2.32-7.2,28.57,28.57,0,0,1,5.69-6.62c2.64-2.24,5.76-4,7.32-7.5-2.31,2.09-2.74,6.21-2.08,9.63s2.15,6.52,3,9.88.93,7.39-.95,10a10.79,10.79,0,0,1-4.23,3.15l-2.58,1.31"/><polygon class="cls-14" points="195.01 128.96 238.12 139.68 238.23 154.65 195.01 140.1 195.01 128.96"/><path class="cls-15" d="M173.09,74.11a7,7,0,0,0-2.36.28,6.92,6.92,0,0,0-5-.8c-3.74.86-5.76,4.92-4.51,9.06a8.48,8.48,0,0,0,6.45,6,4.94,4.94,0,0,0,1.16.2c3.74.24,7.72-2.86,8.88-6.93S176.83,74.35,173.09,74.11Z"/><path class="cls-16" d="M170.33,75.37c-11.78-21.41,24.54-32.5,24.54-32.5"/><ellipse class="cls-17" cx="175.37" cy="81.37" rx="3.5" ry="1.5" transform="translate(27.73 206.18) rotate(-65.1)"/><rect class="cls-8" x="101.87" y="73.87" width="1" height="7" transform="translate(93.06 -50.61) rotate(48.76)"/><rect class="cls-18" x="120.01" y="65.07" width="1" height="7"/><rect class="cls-19" x="132.01" y="63.07" width="1" height="7" transform="translate(-12.34 34.82) rotate(-14.31)"/><rect class="cls-7" x="137.01" y="72.07" width="1" height="7" transform="translate(176.75 -76.36) rotate(75.69)"/><rect class="cls-18" x="95.01" y="65.07" width="1" height="7" transform="translate(76.46 -47.46) rotate(45)"/><rect class="cls-20" x="110.01" y="74.07" width="1" height="7" transform="translate(87.22 -55.43) rotate(45)"/><rect class="cls-19" x="113.08" y="84.76" width="1" height="7" transform="translate(171.03 -43.61) rotate(75.69)"/><rect class="cls-8" x="126.73" y="87.67" width="1" height="7" transform="translate(111.91 -64.6) rotate(48.76)"/><rect class="cls-18" x="150.87" y="86.87" width="1" height="7"/><rect class="cls-18" x="119.87" y="78.87" width="1" height="7" transform="translate(93.5 -60.99) rotate(45)"/><rect class="cls-20" x="139.87" y="81.87" width="1" height="7" transform="translate(-18.61 43.94) rotate(-16.7)"/><rect class="cls-8" x="127.73" y="68.67" width="1" height="7" transform="translate(263.07 13.27) rotate(127.04)"/><rect class="cls-18" x="145.87" y="59.87" width="1" height="7" transform="matrix(0.5, 0.87, -0.87, 0.5, 128.06, -95.08)"/><rect class="cls-7" x="162.87" y="66.87" width="1" height="7" transform="translate(191.17 -105.33) rotate(75.69)"/><rect class="cls-19" x="109.87" y="62.87" width="1" height="7" transform="translate(-14.6 97.48) rotate(-45)"/><rect class="cls-20" x="150.87" y="70.87" width="1" height="7" transform="translate(96.92 -85.25) rotate(45)"/><rect class="cls-8" x="84.39" y="86.43" width="1" height="7" transform="translate(146.63 -17.23) rotate(73.3)"/><rect class="cls-18" x="78.55" y="104.96" width="1" height="7" transform="translate(52.18 -23.03) rotate(24.54)"/><rect class="cls-18" x="81.81" y="75.57" width="1" height="7" transform="translate(127.62 -25.68) rotate(69.54)"/><rect class="cls-20" x="91.71" y="89.99" width="1" height="7" transform="translate(219.29 60.38) rotate(120)"/><rect class="cls-8" x="110.07" y="92.44" width="1" height="7" transform="translate(253.49 127.67) rotate(151.57)"/><rect class="cls-19" x="96.24" y="79.74" width="1" height="7" transform="matrix(0.94, -0.35, 0.35, 0.94, -23, 39.07)"/><rect class="cls-20" x="162.21" y="92.05" width="1" height="7" transform="translate(195.35 -90.3) rotate(69.54)"/><rect class="cls-8" x="103.16" y="106.18" width="1" height="7" transform="translate(178.93 -21.12) rotate(73.3)"/><rect class="cls-18" x="134.31" y="100.71" width="1" height="7" transform="translate(55.46 -46.58) rotate(24.54)"/><rect class="cls-18" x="100.57" y="95.33" width="1" height="7" transform="translate(17.06 -14.86) rotate(9.18)"/><rect class="cls-20" x="110.48" y="109.75" width="1" height="7" transform="translate(178.29 -30.32) rotate(69.54)"/><rect class="cls-8" x="128.84" y="112.19" width="1" height="7" transform="translate(298.16 155.87) rotate(151.57)"/><rect class="cls-19" x="115" y="99.5" width="1" height="7" transform="matrix(0.94, -0.35, 0.35, 0.94, -28.72, 46.88)"/><rect class="cls-20" x="145.98" y="112.81" width="1" height="7" transform="translate(204.24 -61.59) rotate(69.54)"/><rect class="cls-8" x="145.99" y="93.81" width="1" height="7" transform="translate(317.76 137.27) rotate(159.54)"/><rect class="cls-18" x="152.49" y="133.82" width="1" height="7" transform="translate(229.37 -53.54) rotate(69.9)"/><rect class="cls-20" x="254.9" y="88.34" width="1" height="7" transform="translate(446.23 -101.15) rotate(114.9)"/><rect class="cls-20" x="133.6" y="125.52" width="1" height="7" transform="translate(307.59 61.71) rotate(114.9)"/><rect class="cls-8" x="168.76" y="113.31" width="1" height="7" transform="translate(297.16 277.85) rotate(-163.07)"/><path class="cls-9" d="M158.32,36.31V61.43c0,1.61,1.88,2.92,4.21,2.92s4.2-1.31,4.2-2.92V36.31Z"/><ellipse class="cls-10" cx="162.53" cy="36.31" rx="4.21" ry="2.93"/><path class="cls-11" d="M162.12,32.24v3.94c0,.25.4.46.88.46s.89-.21.89-.46V32.24Z"/><ellipse class="cls-12" cx="163.96" cy="32.24" rx="0.88" ry="0.46"/><path class="cls-21" d="M162.49,34.42c-1.09-2.4-2.9-4.16-4.5-6.08a12.21,12.21,0,0,1-3.23-7,12.66,12.66,0,0,1,2.32-7.2,28.57,28.57,0,0,1,5.69-6.62c2.64-2.24,5.76-4,7.32-7.5-2.31,2.08-2.74,6.2-2.08,9.63s2.15,6.52,3,9.88.93,7.39-.95,10a10.79,10.79,0,0,1-4.23,3.15L163.25,34"/><rect class="cls-19" x="156.07" y="101.54" width="1" height="7" transform="translate(58.78 -56.16) rotate(24.9)"/><rect class="cls-20" x="174.65" y="102.79" width="1" height="7" transform="translate(225.88 -92.2) rotate(73.08)"/><rect class="cls-8" x="84.38" y="112.73" width="1" height="7" transform="translate(82.12 260.12) rotate(-142.76)"/><rect class="cls-7" x="195.57" y="71.19" width="1" height="7" transform="translate(49.53 -75.47) rotate(24.84)"/><rect class="cls-20" x="182.07" y="77.39" width="1" height="7" transform="translate(-7.29 19.02) rotate(-5.85)"/><rect class="cls-20" x="208.47" y="66.83" width="1" height="7" transform="translate(-6.08 21.65) rotate(-5.85)"/><rect class="cls-18" x="215.01" y="87.06" width="1" height="7" transform="translate(-17.81 104.89) rotate(-26.31)"/><rect class="cls-19" x="204.95" y="89.58" width="1" height="7" transform="matrix(0.32, -0.95, 0.95, 0.32, 51.43, 257.86)"/><rect class="cls-18" x="245.25" y="78.58" width="1" height="7" transform="translate(39.27 -74.43) rotate(18.69)"/><rect class="cls-7" x="218.48" y="77.67" width="1" height="7" transform="translate(313.64 -132.32) rotate(93.58)"/><rect class="cls-7" x="227.48" y="65.67" width="1" height="7" transform="translate(412.11 -82) rotate(123.74)"/><rect class="cls-7" x="182.48" y="112.67" width="1" height="7" transform="translate(381.2 28.52) rotate(123.74)"/><rect class="cls-7" x="243.48" y="97.67" width="1" height="7" transform="translate(463.61 -45.54) rotate(123.74)"/><rect class="cls-20" x="199.61" y="84.59" width="1" height="7" transform="translate(212.68 -130.19) rotate(69.54)"/><rect class="cls-19" x="238.55" y="75.26" width="1" height="7" transform="translate(256.28 -172.35) rotate(75.69)"/><rect class="cls-19" x="254.08" y="112.41" width="1" height="7" transform="translate(303.97 -159.41) rotate(75.69)"/><rect class="cls-8" x="232.41" y="84.46" width="1" height="7" transform="translate(335.22 -139.01) rotate(93.58)"/><path class="cls-9" d="M112,50.64V75.75c0,1.62,1.88,2.93,4.21,2.93s4.2-1.31,4.2-2.93V50.64Z"/><ellipse class="cls-10" cx="116.21" cy="50.64" rx="4.21" ry="2.93"/><path class="cls-11" d="M115.8,46.57V50.5c0,.26.4.46.88.46s.89-.2.89-.46V46.57Z"/><ellipse class="cls-12" cx="117.64" cy="46.57" rx="0.88" ry="0.46"/><path class="cls-22" d="M116.17,48.75c-1.09-2.41-2.9-4.16-4.5-6.09a12.21,12.21,0,0,1-3.23-7,12.7,12.7,0,0,1,2.32-7.2,28.76,28.76,0,0,1,5.69-6.61c2.64-2.25,5.76-4,7.32-7.51-2.31,2.09-2.74,6.21-2.08,9.63s2.15,6.52,3,9.88.94,7.39-1,10A10.79,10.79,0,0,1,119.51,47l-2.58,1.31"/><path class="cls-9" d="M82.41,51V76.13c0,1.62,1.88,2.93,4.21,2.93s4.2-1.31,4.2-2.93V51Z"/><ellipse class="cls-10" cx="86.62" cy="51.01" rx="4.21" ry="2.93"/><path class="cls-11" d="M86.21,47v3.93c0,.26.4.46.88.46s.89-.2.89-.46V47Z"/><ellipse class="cls-12" cx="88.05" cy="46.95" rx="0.88" ry="0.46"/><path class="cls-23" d="M86.58,49.13c-1.09-2.41-2.9-4.16-4.5-6.09a12.21,12.21,0,0,1-3.23-7,12.7,12.7,0,0,1,2.32-7.2,28.57,28.57,0,0,1,5.69-6.62c2.64-2.24,5.76-4,7.32-7.5-2.31,2.09-2.74,6.21-2.08,9.63s2.15,6.52,3,9.88.93,7.39-.95,10a10.79,10.79,0,0,1-4.23,3.15L87.34,48.7"/><path class="cls-9" d="M138.41,43V68.13c0,1.62,1.88,2.93,4.21,2.93s4.2-1.31,4.2-2.93V43Z"/><ellipse class="cls-10" cx="142.62" cy="43.01" rx="4.21" ry="2.93"/><path class="cls-11" d="M142.21,39v3.93c0,.26.4.46.88.46s.89-.2.89-.46V39Z"/><ellipse class="cls-12" cx="144.05" cy="38.95" rx="0.88" ry="0.46"/><path class="cls-24" d="M142.58,41.13c-1.09-2.41-2.9-4.16-4.5-6.09a12.21,12.21,0,0,1-3.23-7,12.7,12.7,0,0,1,2.32-7.2,28.57,28.57,0,0,1,5.69-6.62c2.64-2.24,5.76-4,7.32-7.5-2.31,2.09-2.74,6.21-2.08,9.63s2.15,6.52,3,9.88.93,7.39-.95,10a10.79,10.79,0,0,1-4.23,3.15l-2.58,1.31"/><path class="cls-9" d="M150.41,92v25.12c0,1.62,1.88,2.93,4.21,2.93s4.2-1.31,4.2-2.93V92Z"/><ellipse class="cls-10" cx="154.62" cy="92.01" rx="4.21" ry="2.93"/><path class="cls-11" d="M154.21,88v3.93c0,.26.4.46.88.46s.89-.2.89-.46V88Z"/><ellipse class="cls-12" cx="156.05" cy="87.95" rx="0.88" ry="0.46"/><path class="cls-25" d="M154.58,90.13c-1.09-2.41-2.9-4.16-4.5-6.09a12.21,12.21,0,0,1-3.23-7,12.7,12.7,0,0,1,2.32-7.2,28.57,28.57,0,0,1,5.69-6.62c2.64-2.24,5.76-4,7.32-7.5-2.31,2.09-2.74,6.21-2.08,9.63s2.15,6.52,3,9.88.93,7.39-.95,10a10.79,10.79,0,0,1-4.23,3.15l-2.58,1.31"/><path class="cls-9" d="M127.75,76.36v25.12c0,1.62,1.88,2.93,4.21,2.93s4.21-1.31,4.21-2.93V76.36Z"/><ellipse class="cls-10" cx="131.96" cy="76.36" rx="4.21" ry="2.93"/><path class="cls-11" d="M131.55,72.3v3.93c0,.25.4.46.89.46s.88-.21.88-.46V72.3Z"/><ellipse class="cls-12" cx="133.39" cy="72.3" rx="0.88" ry="0.46"/><path class="cls-26" d="M131.92,74.48c-1.09-2.41-2.9-4.16-4.5-6.09a12.27,12.27,0,0,1-3.23-7,12.7,12.7,0,0,1,2.32-7.2,28.81,28.81,0,0,1,5.69-6.62c2.64-2.24,5.76-4,7.32-7.5-2.31,2.09-2.73,6.2-2.08,9.63s2.15,6.52,3,9.88.94,7.39-.95,10a10.79,10.79,0,0,1-4.23,3.15l-2.57,1.31"/><path class="cls-9" d="M234.41,50V75.13c0,1.62,1.88,2.93,4.21,2.93s4.2-1.31,4.2-2.93V50Z"/><ellipse class="cls-10" cx="238.62" cy="50.01" rx="4.21" ry="2.93"/><path class="cls-11" d="M238.21,46v3.93c0,.26.4.46.88.46s.89-.2.89-.46V46Z"/><ellipse class="cls-12" cx="240.05" cy="45.95" rx="0.88" ry="0.46"/><path class="cls-27" d="M238.58,48.13c-1.09-2.41-2.9-4.16-4.5-6.09a12.21,12.21,0,0,1-3.23-7,12.7,12.7,0,0,1,2.32-7.2,28.57,28.57,0,0,1,5.69-6.62c2.64-2.24,5.76-4,7.32-7.5-2.31,2.09-2.74,6.21-2.08,9.63s2.15,6.52,3,9.88.93,7.39-.95,10a10.79,10.79,0,0,1-4.23,3.15l-2.58,1.31"/><path class="cls-9" d="M97.41,78v25.12c0,1.62,1.88,2.93,4.21,2.93s4.2-1.31,4.2-2.93V78Z"/><ellipse class="cls-10" cx="101.62" cy="78.01" rx="4.21" ry="2.93"/><path class="cls-11" d="M101.21,74v3.93c0,.26.4.46.88.46s.89-.2.89-.46V74Z"/><ellipse class="cls-12" cx="103.05" cy="73.95" rx="0.88" ry="0.46"/><path class="cls-28" d="M101.58,76.13c-1.09-2.41-2.9-4.16-4.5-6.09a12.21,12.21,0,0,1-3.23-7,12.7,12.7,0,0,1,2.32-7.2,28.57,28.57,0,0,1,5.69-6.62c2.64-2.24,5.76-4,7.32-7.5-2.31,2.09-2.74,6.21-2.08,9.63s2.15,6.52,3,9.88.93,7.39-.95,10a10.79,10.79,0,0,1-4.23,3.15l-2.58,1.31"/><path class="cls-9" d="M204,41V66.13c0,1.62,1.89,2.93,4.21,2.93s4.21-1.31,4.21-2.93V41Z"/><ellipse class="cls-10" cx="208.17" cy="41.02" rx="4.21" ry="2.93"/><path class="cls-11" d="M207.77,37v3.94c0,.25.39.45.88.45s.88-.2.88-.45V37Z"/><ellipse class="cls-12" cx="209.61" cy="36.95" rx="0.88" ry="0.46"/><path class="cls-29" d="M208.13,39.13c-1.09-2.4-2.89-4.16-4.49-6.08a12.24,12.24,0,0,1-3.23-7,12.51,12.51,0,0,1,2.32-7.2,28.78,28.78,0,0,1,5.68-6.62c2.64-2.24,5.77-4,7.32-7.5-2.3,2.08-2.73,6.2-2.08,9.63s2.15,6.52,3,9.88.93,7.38-1,10a11,11,0,0,1-4.22,3.15l-2.58,1.31"/><path class="cls-9" d="M216.41,65V90.13c0,1.62,1.88,2.93,4.21,2.93s4.2-1.31,4.2-2.93V65Z"/><ellipse class="cls-10" cx="220.62" cy="65.01" rx="4.21" ry="2.93"/><path class="cls-11" d="M220.21,61v3.93c0,.26.4.46.88.46s.89-.2.89-.46V61Z"/><ellipse class="cls-12" cx="222.05" cy="60.95" rx="0.88" ry="0.46"/><path class="cls-30" d="M220.58,63.13c-1.09-2.41-2.9-4.16-4.5-6.09a12.21,12.21,0,0,1-3.23-7,12.7,12.7,0,0,1,2.32-7.2,28.57,28.57,0,0,1,5.69-6.62c2.64-2.24,5.76-4,7.32-7.5-2.31,2.09-2.74,6.21-2.08,9.63s2.15,6.52,3,9.88.93,7.39-.95,10a10.79,10.79,0,0,1-4.23,3.15l-2.58,1.31"/></g></g></svg>