<svg xmlns="http://www.w3.org/2000/svg" xmlns:xlink="http://www.w3.org/1999/xlink" viewBox="0 0 333.91 250.43"><defs><style>.cls-1{fill:url(#Naamloos_verloop_84);}.cls-2{fill:url(#Naamloos_verloop_103);}.cls-3{fill:url(#Naamloos_verloop_137);}.cls-4{fill:#d4a88f;}.cls-5{fill:#e3d095;}.cls-6{fill:url(#Naamloos_verloop_154);}.cls-7{fill:#00ffa3;}.cls-8{fill:#ceb984;}.cls-9{fill:#e24134;}.cls-10{fill:none;stroke:#11681b;stroke-miterlimit:10;}.cls-11{fill:#d86866;}.cls-12{fill:#0af;}.cls-13{fill:#ff00ed;}.cls-14{fill:red;}.cls-15{fill:#fff;}</style><linearGradient id="Naamloos_verloop_84" x1="124.31" y1="196.21" x2="213.23" y2="196.21" gradientUnits="userSpaceOnUse"><stop offset="0.01"/><stop offset="1" stop-color="#d9ded4"/></linearGradient><radialGradient id="Naamloos_verloop_103" cx="166.96" cy="131.18" r="122.41" gradientTransform="translate(0 65.59) scale(1 0.5)" gradientUnits="userSpaceOnUse"><stop offset="0.01" stop-color="#7a7a7a"/><stop offset="1" stop-color="#d9ded4"/></radialGradient><linearGradient id="Naamloos_verloop_137" x1="168.84" y1="152.97" x2="167.82" y2="-13.38" gradientUnits="userSpaceOnUse"><stop offset="0.01" stop-color="#ff7bac"/><stop offset="0.03" stop-color="#fd71a7"/><stop offset="0.18" stop-color="#f23586"/><stop offset="0.25" stop-color="#ed1e79"/><stop offset="0.63" stop-color="#d9ded4"/></linearGradient><radialGradient id="Naamloos_verloop_154" cx="167.92" cy="65.82" fy="38.53135958906404" r="75.58" gradientTransform="translate(315.77 -96.82) rotate(92.09) scale(1 2.15)" gradientUnits="userSpaceOnUse"><stop offset="0.08" stop-color="#42210b"/><stop offset="0.45" stop-color="#43220b"/><stop offset="0.86" stop-color="#603813"/></radialGradient></defs><title>Decorated-Cake</title><g id="Laag_2" data-name="Laag 2"><g id="Laag_1-2" data-name="Laag 1"><path class="cls-1" d="M181,142H149.68L124.31,242.21h0c.43,1.85,7.19,8.22,41.12,8.22,40.6,0,47.36-6.37,47.8-8.22h0Z"/><ellipse class="cls-2" cx="166.96" cy="131.18" rx="166.96" ry="45.75"/><path class="cls-3" d="M261.51,43.3V127h0c-.19,9.62.11,9-23.7,18.14l-.35.14h0l-.33-.11-.05,0-12.87-4.51L195,130v.18l.33,22.61c-8.53.75-17.56,1.16-26.93,1.16-51.22,0-92.78-12.07-93.08-27h0V43.3Z"/><path class="cls-4" d="M261.61,43.86a7.32,7.32,0,0,1-.1,1.24,8.79,8.79,0,0,1-.39,1.57c-2.07,5.88-10.57,11.21-23.43,15.37l-.35.12c-11.27,3.61-25.84,6.33-42.32,7.75-1,.09-2.1.18-3.16.25-7.46.57-15.29.87-23.35.87C117.1,71,75.42,58.87,75.42,43.86c0-.19,0-.37,0-.56,1-14.74,42.3-26.6,93.07-26.6,46.58,0,85.16,10,92,23A8.93,8.93,0,0,1,261.61,43.86Z"/><path class="cls-5" d="M168.38,43.8,195,69.68,195,130.16s29.16,11.27,42.72,15.14c1.28.36,0-83.48,0-83.48Z"/><path class="cls-6" d="M262.34,86.2a3,3,0,0,1-.83.93c-1,.79-2.35,8.68-3.64,8.35s-2.6-8.73-3.66-9.54a1.16,1.16,0,0,0-1.7.34c-1.91,3.26-7.64-21.81-8.47,7.24-.17,6-2.31,7.72-3.17,7-.68-.59-.9-8.61-1-9.51q-1.06-13.23-2.15-26.48a.22.22,0,0,1,0-.08,0,0,0,0,1,0,0V64.3a9.06,9.06,0,0,0-.38-2.14c-.05-.16-.51-.41-1.47-.68-13.18-3.81-38-10-38-10l-16-4s-5.3-1.45-9.55-2.67a1.17,1.17,0,0,0-1.15,2l8.68,8.68a.12.12,0,0,0,.05,0l5.64,5s3,2.78,3.31,3.2h0a0,0,0,0,1,0,0,52.26,52.26,0,0,0,5.61,5.43,1.18,1.18,0,0,1,.4.89V80.35a1.07,1.07,0,0,1,0,.25c-.16.71-1,4.27-1.3,6.86-.15,1.12,1.33,17-2.67,18s-6,28-6-14c0-5-13,16-11.91-6.83,0-.92-1.76-.69-2.66-.51a5.26,5.26,0,0,0-2.65,2.06c-6.16,7.07-17.54,37.22-21.78,20.28-1-4-11.07-14.09-14-15-3.78-1.17-7.69,6.5-8.61-1-3.39-28-10.36-5.65-16.14-6.68a11.57,11.57,0,0,0-5.76.09c-2,.71-3.7,11.46-5.49,12.64-4.11,2.72-.3-31.3-14.14-6.19-2.86,5.19-4.86-6.81-6.9-.68-.18.54-1-.53-1-1.09-.3-5.78-1.75-36,.05-45,4.82-24.11,43.87-26.78,94.64-26.78,46.58,0,86.36,7.78,92.36,23.78a9.48,9.48,0,0,1,1,3v3c.13,2.78-.49,5.76-.36,8.54q.66,13.92,1.31,27.83A6.14,6.14,0,0,1,262.34,86.2Z"/><rect class="cls-7" x="161.87" y="41.48" width="1" height="7" transform="translate(165.82 -123.47) rotate(75.69)"/><polygon class="cls-8" points="195.01 86.57 238.12 97.29 238.23 112.26 195.01 97.71 195.01 86.57"/><path class="cls-9" d="M173.09,31.73a7,7,0,0,0-2.36.27,7,7,0,0,0-5-.8c-3.74.86-5.76,4.92-4.51,9.06a8.51,8.51,0,0,0,6.45,6,6.25,6.25,0,0,0,1.16.2c3.74.23,7.72-2.87,8.88-6.94S176.83,32,173.09,31.73Z"/><path class="cls-10" d="M170.33,33C158.55,11.58,194.87.48,194.87.48"/><ellipse class="cls-11" cx="175.37" cy="38.98" rx="3.5" ry="1.5" transform="translate(66.18 181.64) rotate(-65.1)"/><rect class="cls-12" x="101.87" y="31.48" width="1" height="7" transform="translate(61.19 -65.06) rotate(48.76)"/><rect class="cls-13" x="120.01" y="22.68" width="1" height="7"/><rect class="cls-14" x="132.01" y="20.68" width="1" height="7" transform="translate(-1.86 33.5) rotate(-14.31)"/><rect class="cls-7" x="137.01" y="29.68" width="1" height="7" transform="translate(135.67 -108.27) rotate(75.69)"/><rect class="cls-13" x="95.01" y="22.68" width="1" height="7" transform="translate(46.49 -59.87) rotate(45)"/><rect class="cls-15" x="110.01" y="31.68" width="1" height="7" transform="translate(57.24 -67.84) rotate(45)"/><rect class="cls-14" x="113.08" y="42.37" width="1" height="7" transform="translate(129.95 -75.52) rotate(75.69)"/><rect class="cls-12" x="126.73" y="45.28" width="1" height="7" transform="translate(80.04 -79.05) rotate(48.76)"/><rect class="cls-13" x="150.87" y="44.48" width="1" height="7"/><rect class="cls-13" x="119.87" y="36.48" width="1" height="7" transform="translate(63.53 -73.41) rotate(45)"/><rect class="cls-15" x="139.87" y="39.48" width="1" height="7" transform="translate(-6.43 42.15) rotate(-16.7)"/><rect class="cls-12" x="127.73" y="26.28" width="1" height="7" transform="translate(229.24 -54.65) rotate(127.04)"/><rect class="cls-13" x="145.87" y="17.48" width="1" height="7" transform="matrix(0.5, 0.87, -0.87, 0.5, 91.35, -116.27)"/><rect class="cls-7" x="162.87" y="24.48" width="1" height="7" transform="translate(150.1 -137.24) rotate(75.69)"/><rect class="cls-14" x="109.87" y="20.48" width="1" height="7" transform="translate(15.37 85.07) rotate(-45)"/><rect class="cls-15" x="150.87" y="28.48" width="1" height="7" transform="translate(66.95 -97.67) rotate(45)"/><rect class="cls-12" x="84.39" y="44.04" width="1" height="7" transform="translate(106.03 -47.43) rotate(73.3)"/><rect class="cls-13" x="78.55" y="62.57" width="1" height="7" transform="translate(34.58 -26.86) rotate(24.54)"/><rect class="cls-13" x="81.81" y="33.19" width="1" height="7" transform="translate(87.91 -53.25) rotate(69.54)"/><rect class="cls-15" x="91.71" y="47.6" width="1" height="7" transform="translate(182.58 -3.21) rotate(120)"/><rect class="cls-12" x="110.07" y="50.05" width="1" height="7" transform="translate(233.31 48.01) rotate(151.57)"/><rect class="cls-14" x="96.24" y="37.36" width="1" height="7" transform="translate(-8.18 36.39) rotate(-20.46)"/><rect class="cls-15" x="162.21" y="49.66" width="1" height="7" transform="translate(155.64 -117.87) rotate(69.54)"/><rect class="cls-12" x="103.16" y="63.8" width="1" height="7" transform="translate(138.33 -51.33) rotate(73.3)"/><rect class="cls-13" x="134.31" y="58.33" width="1" height="7" transform="translate(37.85 -50.4) rotate(24.54)"/><rect class="cls-13" x="100.57" y="52.94" width="1" height="7" transform="translate(10.3 -15.4) rotate(9.18)"/><rect class="cls-15" x="110.48" y="67.36" width="1" height="7" transform="translate(138.57 -57.89) rotate(69.54)"/><rect class="cls-12" x="128.84" y="69.81" width="1" height="7" transform="translate(277.98 76.21) rotate(151.57)"/><rect class="cls-14" x="115" y="57.11" width="1" height="7" transform="translate(-13.9 44.2) rotate(-20.46)"/><rect class="cls-15" x="145.98" y="70.42" width="1" height="7" transform="translate(164.53 -89.16) rotate(69.54)"/><rect class="cls-12" x="145.99" y="51.42" width="1" height="7" transform="translate(302.94 55.17) rotate(159.54)"/><rect class="cls-13" x="152.49" y="91.43" width="1" height="7" transform="translate(189.56 -81.36) rotate(69.9)"/><rect class="cls-15" x="254.9" y="45.96" width="1" height="7" transform="translate(407.79 -161.38) rotate(114.9)"/><rect class="cls-15" x="133.6" y="83.14" width="1" height="7" transform="translate(269.14 1.47) rotate(114.9)"/><rect class="cls-12" x="168.76" y="70.92" width="1" height="7" transform="matrix(-0.96, -0.29, 0.29, -0.96, 309.51, 194.91)"/><rect class="cls-14" x="156.07" y="59.15" width="1" height="7" transform="translate(40.93 -60.1) rotate(24.9)"/><rect class="cls-15" x="174.65" y="60.41" width="1" height="7" transform="translate(185.33 -122.26) rotate(73.08)"/><rect class="cls-12" x="84.38" y="70.34" width="1" height="7" transform="matrix(-0.8, -0.61, 0.61, -0.8, 107.77, 183.99)"/><rect class="cls-13" x="181.41" y="21.57" width="1" height="7" transform="translate(47.61 150.3) rotate(-50.85)"/><rect class="cls-7" x="195.57" y="28.8" width="1" height="7" transform="translate(31.72 -79.39) rotate(24.84)"/><rect class="cls-15" x="182.07" y="35" width="1" height="7" transform="translate(-2.97 18.8) rotate(-5.85)"/><rect class="cls-15" x="208.47" y="24.44" width="1" height="7" transform="translate(-1.76 21.43) rotate(-5.85)"/><rect class="cls-12" x="189.07" y="17.85" width="1" height="7" transform="translate(165.06 -167.84) rotate(76.19)"/><rect class="cls-13" x="215.01" y="44.67" width="1" height="7" transform="translate(0.97 100.5) rotate(-26.31)"/><rect class="cls-14" x="204.95" y="47.19" width="1" height="7" transform="matrix(0.32, -0.95, 0.95, 0.32, 91.58, 229.06)"/><rect class="cls-13" x="245.25" y="36.19" width="1" height="7" transform="translate(25.69 -76.67) rotate(18.69)"/><rect class="cls-7" x="218.48" y="35.28" width="1" height="7" transform="translate(271.34 -177.35) rotate(93.58)"/><rect class="cls-7" x="227.48" y="23.28" width="1" height="7" transform="translate(376.86 -147.93) rotate(123.74)"/><rect class="cls-7" x="182.48" y="70.28" width="1" height="7" transform="translate(345.95 -37.41) rotate(123.74)"/><rect class="cls-7" x="243.48" y="55.28" width="1" height="7" transform="translate(428.36 -111.46) rotate(123.74)"/><rect class="cls-15" x="199.61" y="42.2" width="1" height="7" transform="translate(172.97 -157.76) rotate(69.54)"/><rect class="cls-14" x="238.55" y="32.87" width="1" height="7" transform="translate(215.21 -204.26) rotate(75.69)"/><rect class="cls-14" x="254.08" y="70.03" width="1" height="7" transform="translate(262.9 -191.32) rotate(75.69)"/><rect class="cls-12" x="232.41" y="42.07" width="1" height="7" transform="translate(292.91 -184.04) rotate(93.58)"/></g></g></svg>