<svg width="100" height="99" viewBox="0 0 100 99" fill="none" xmlns="http://www.w3.org/2000/svg">
<path d="M99.5 54V98.5H0.5V54C0.5 26.6619 22.6619 4.5 50 4.5C77.3381 4.5 99.5 26.6619 99.5 54Z" fill="#DC143C" stroke="black"/>
<path d="M16 40H15V41H16V40Z" fill="#C4C4C4"/>
<path d="M38.5 34.5H14.5V58.5H38.5V34.5Z" fill="#DC143C" stroke="black"/>
<path d="M34 39H19V54H34V39Z" fill="black"/>
<path d="M85.5 34.5H61.5V58.5H85.5V34.5Z" fill="#DC143C" stroke="black"/>
<path d="M65.5 67.5H34.5V91.5H65.5V67.5Z" fill="#DC143C" stroke="black"/>
<path d="M81 39H66V54H81V39Z" fill="black"/>
<path d="M60.5 71.5H39.5V87.5H60.5V71.5Z" fill="black" stroke="black"/>
<path d="M52.5 7.5H47.5V13.5H52.5V7.5Z" fill="#DC143C" stroke="black"/>
<path d="M56.5 5C56.5 6.17733 55.8328 7.29036 54.6591 8.12867C53.4865 8.96629 51.8408 9.5 50 9.5C48.1592 9.5 46.5135 8.96629 45.3409 8.12867C44.1672 7.29036 43.5 6.17733 43.5 5C43.5 3.82267 44.1672 2.70964 45.3409 1.87133C46.5135 1.03371 48.1592 0.5 50 0.5C51.8408 0.5 53.4865 1.03371 54.6591 1.87133C55.8328 2.70964 56.5 3.82267 56.5 5Z" fill="#DC143C" stroke="black"/>
<path d="M14.4018 10.4759L10.8568 14.0019L15.088 18.2559L18.633 14.7299L14.4018 10.4759Z" fill="#DC143C" stroke="black"/>
<path d="M15.0976 5.89762C15.9278 6.73235 16.2397 7.99204 15.9987 9.41405C15.758 10.8349 14.9676 12.3738 13.6625 13.672C12.3573 14.9701 10.8142 15.7522 9.39205 15.9853C7.96876 16.2186 6.71077 15.9 5.88052 15.0653C5.05026 14.2305 4.73843 12.9708 4.97936 11.5488C5.2201 10.128 6.0105 8.58905 7.31564 7.29092C8.62078 5.99278 10.1639 5.21066 11.5861 4.97757C13.0093 4.74429 14.2673 5.06289 15.0976 5.89762Z" fill="#DC143C" stroke="black"/>
<path d="M11.889 8.7071L11.5355 8.35355L8.35351 11.5355L8.70706 11.8891L11.889 8.7071Z" fill="#C4C4C4" stroke="black" stroke-width="0.5"/>
<path d="M8.7071 8.64645L8.35355 9L11.5355 12.182L11.8891 11.8284L8.7071 8.64645Z" fill="#C4C4C4" stroke="black" stroke-width="0.5"/>
<path d="M85.9384 10.4759L89.4834 14.0019L85.2522 18.2559L81.7072 14.7299L85.9384 10.4759Z" fill="#DC143C" stroke="black"/>
<path d="M85.2426 5.89762C84.4123 6.73235 84.1005 7.99204 84.3414 9.41405C84.5821 10.8349 85.3725 12.3738 86.6777 13.672C87.9828 14.9701 89.526 15.7522 90.9481 15.9853C92.3714 16.2186 93.6294 15.9 94.4596 15.0653C95.2899 14.2305 95.6017 12.9708 95.3608 11.5488C95.1201 10.128 94.3296 8.58905 93.0245 7.29092C91.7194 5.99278 90.1762 5.21066 88.7541 4.97757C87.3308 4.74429 86.0728 5.06289 85.2426 5.89762Z" fill="#DC143C" stroke="black"/>
<path d="M88.451 8.7071L88.8046 8.35355L91.9866 11.5355L91.633 11.8891L88.451 8.7071Z" fill="#C4C4C4" stroke="black" stroke-width="0.5"/>
<path d="M91.633 8.64645L91.9866 9L88.8046 12.182L88.4511 11.8284L91.633 8.64645Z" fill="#C4C4C4" stroke="black" stroke-width="0.5"/>
<path d="M51.889 3.7071L51.5355 3.35355L48.3535 6.53553L48.7071 6.88908L51.889 3.7071Z" fill="#C4C4C4" stroke="black" stroke-width="0.5"/>
<path d="M48.7072 3.64645L48.3536 4L51.5356 7.18198L51.8891 6.82843L48.7072 3.64645Z" fill="#C4C4C4" stroke="black" stroke-width="0.5"/>
</svg>
